HIERARCHY
ROOT pelvis
{
  OFFSET 0 100 0
  CHANNELS 6 Xposition Yposition Zposition Zrotation Xrotation Yrotation
  JOINT pelvis_right_femur
  {
    OFFSET -10.78128 -3.44521 -0.5502486
    CHANNELS 3 Zrotation Xrotation Yrotation
    JOINT right_femur_tibia
    {
      OFFSET -0.8047443 -44.0398 -0.1307829
      CHANNELS 3 Zrotation Xrotation Yrotation
      JOINT right_tibia_foot
      {
        OFFSET 3.006224 -47.83518 -5
        CHANNELS 3 Zrotation Xrotation Yrotation
        End Site
        {
          OFFSET 0 -5 15
        }
      }
    }
  }
  JOINT pelvis_left_femur
  {
    OFFSET 10.78128 -3.44521 -0.5502486
    CHANNELS 3 Zrotation Xrotation Yrotation
    JOINT left_femur_tibia
    {
      OFFSET 0.8047443 -44.0398 -0.1307829
      CHANNELS 3 Zrotation Xrotation Yrotation
      JOINT left_tibia_foot
      {
        OFFSET -4.370144 -48.10324 -4.275266
        CHANNELS 3 Zrotation Xrotation Yrotation
        End Site
        {
          OFFSET 0 -5 15
        }
      }
    }
  }
  JOINT pelvis_spine1
  {
    OFFSET 0 6.468898 -3.129235
    CHANNELS 3 Zrotation Xrotation Yrotation
    JOINT spine1
    {
      OFFSET 0 23.15396 4.99043
      CHANNELS 3 Zrotation Xrotation Yrotation
      JOINT spine2
      {
        OFFSET 0 20.79997 -5.064912
        CHANNELS 3 Zrotation Xrotation Yrotation
        JOINT neck
        {
          OFFSET 0 14.38658 9.616178
          CHANNELS 3 Zrotation Xrotation Yrotation
          End Site
          {
            OFFSET 0 20 0
          }
        }
      }
      JOINT right_manubrium
      {
        OFFSET -5.722621 16.35077 3.967754
        CHANNELS 3 Zrotation Xrotation Yrotation
        JOINT right_clavicle
        {
          OFFSET -13.16364 1.694482 -4.693211
          CHANNELS 3 Zrotation Xrotation Yrotation
          JOINT right_humerus
          {
            OFFSET -28.5034 -0.3100689 -2.792744
            CHANNELS 3 Zrotation Xrotation Yrotation
            JOINT right_radius
            {
              OFFSET -25.15693 0.02248979 -1.271978
              CHANNELS 3 Zrotation Xrotation Yrotation
              End Site
              {
                OFFSET -15 0 0
              }
            }
          }
        }
      }
      JOINT left_manubrium
      {
        OFFSET 5.722621 16.35077 3.967754
        CHANNELS 3 Zrotation Xrotation Yrotation
        JOINT left_clavicle
        {
          OFFSET 13.16364 1.694482 -4.693211
          CHANNELS 3 Zrotation Xrotation Yrotation
          JOINT left_humerus
          {
            OFFSET 29.39168 -1.063119 -2.237045
            CHANNELS 3 Zrotation Xrotation Yrotation
            JOINT left_radius
            {
              OFFSET 24.59957 -0.9528479 0.9047498
              CHANNELS 3 Zrotation Xrotation Yrotation
              End Site
              {
                OFFSET 15 -0 -0
              }
            }
          }
        }
      }
    }
  }
}
MOTION
Frames: 13
Frame Time: 0.0416666666667
0 103.5113 0 0.8131478 -0.741139 0.2713483 3.352927 -18.88314 8.043489 -0 37.87217 -0 -5.134149 -13.71115 -3.209951 -7.161206 8.45261 -21.90925 -0 4.366317 -0 6.98613 -19.0405 25.12096 -1.780792 -2.830841 5.152126 3.165403 10.53006 -7.399803 0.3125042 20.91906 7.476114 3.875561 -28.35572 8.757708 5.102696 -21.77182 12.69157 84.90721 36.72307 -16.49953 -0 0 15.77558 -9.856719 9.570867 7.660531 5.455176 -21.01025 -1.423192 -96.09084 22.24821 27.92425 0 0 -14.13447 11.80728 16.66583 0.1854198
0.3717335 103.2588 1.571004 0.7842624 -0.7119107 0.5251583 3.549408 -19.97098 8.163463 -0 37.84449 -0 -5.21846 -13.4753 -3.399576 -7.146745 9.498173 -22.00654 -0 5.726306 -0 6.869746 -19.11761 24.94308 -1.7666 -2.818485 5.054866 3.197126 10.56549 -7.529445 0.3122538 20.88918 7.49018 3.873896 -28.27615 8.74442 5.069278 -21.57325 12.67469 85.29013 36.59925 -17.05507 -0 0 15.34435 -9.929585 9.642558 7.580951 5.501377 -21.22295 -1.52996 -95.62374 22.23877 27.27052 0 0 -14.8165 11.825 16.5242 0.1671977
0.6586208 102.8671 3.444389 0.6135649 -0.624856 0.7769368 3.805595 -22.33198 7.421195 -0 34.37749 -0 -5.533919 -12.42914 -3.583515 -6.760479 11.43142 -21.15993 -0 6.285768 -0 6.379785 -19.61744 23.88418 -1.892651 -2.592606 4.658665 3.298905 10.28938 -7.816415 0.3617643 20.95767 7.578796 3.901285 -27.84036 8.771981 5.189892 -20.53111 12.47599 86.04652 36.61867 -18.4551 -0 0 13.93256 -9.833228 9.608108 7.197645 5.648696 -21.46133 -1.665753 -94.2553 22.90519 24.90939 0 0 -16.58776 11.26986 15.98869 0.7990321
0.8719849 102.2918 5.559941 0.4306731 -0.4440371 1.011489 4.059094 -24.43915 6.717869 -0 30.49579 -0 -5.907587 -11.77444 -3.655354 -6.381544 12.96972 -20.41973 -0 6.256724 -0 6.065237 -20.09358 22.9977 -1.928948 -2.507231 4.422324 3.373456 10.20652 -8.030036 0.3771303 20.96758 7.632055 3.917851 -27.65709 8.787122 5.213748 -19.98796 12.38987 86.64637 36.55195 -19.43282 -0 0 13.04016 -9.795635 9.626953 6.963302 5.748227 -21.72765 -1.788698 -93.40513 23.1177 23.52114 0 0 -17.76463 11.15294 15.72811 0.9325572
0.9989293 101.5024 8.01617 0.2207238 -0.3082804 1.236795 4.279048 -26.86796 5.810606 -0 26.03551 -0 -6.299658 -10.77541 -3.765359 -5.957648 14.82495 -19.4215 -0 6.407794 -0 5.551325 -20.62618 21.82316 -1.987447 -2.399591 4.167701 3.452744 10.07036 -8.232118 0.3980813 21.00104 7.694722 3.941231 -27.46201 8.816352 5.26914 -19.38557 12.28415 87.20445 36.54415 -20.38623 -0 0 12.12115 -9.696333 9.603913 6.699539 5.852176 -21.94535 -1.883458 -92.56396 23.40921 22.07543 0 0 -18.90085 10.9824 15.46926 1.126111
1.04424 100.5052 10.90591 0.02371181 -0.2997266 1.467714 4.373445 -29.14483 4.758727 -0 21.74991 -0 -6.610121 -9.419094 -3.910503 -5.56466 16.68922 -18.19875 -0 6.824425 -0 4.809039 -21.09755 20.44354 -2.019305 -2.325339 3.961256 3.517704 9.994473 -8.415046 0.4116845 21.01308 7.741727 3.956253 -27.3077 8.83205 5.291799 -18.91458 12.20874 87.72319 36.47922 -21.22652 -0 0 11.34695 -9.653935 9.61344 6.492429 5.938754 -22.17327 -1.986215 -91.83524 23.56772 20.86643 0 0 -19.90757 10.89014 15.25227 1.231184
1.01953 99.33732 14.37873 -0.1384157 -0.5289572 1.727347 4.278312 -31.05861 3.509364 -0 18.0104 -0 -6.759514 -7.472033 -4.135081 -5.235592 18.51007 -16.61581 -0 7.895358 -0 3.677119 -21.40481 18.75132 -2.050645 -2.25122 3.774755 3.572602 9.920197 -8.57724 0.4262965 21.02582 7.78208 3.967737 -27.15017 8.843052 5.314487 -18.47723 12.13673 88.18385 36.40939 -21.97713 -0 0 10.64769 -9.627777 9.623875 6.30988 6.014856 -22.37007 -2.079802 -91.16401 23.71174 19.74755 0 0 -20.82204 10.77488 15.03837 1.362708
0.94779 98.08494 18.57294 -0.2386704 -1.058823 2.033589 4.008299 -32.21698 2.168454 -0 15.28877 -0 -6.692593 -5.003619 -4.457438 -5.009657 20.00186 -14.69523 -0 10.0299 -0 2.132626 -21.3671 16.82602 -2.072362 -2.186786 3.615558 3.615783 9.868931 -8.72295 0.4395868 21.03026 7.812129 3.973154 -26.9962 8.844296 5.324335 -18.09885 12.07634 88.6018 36.31021 -22.64501 -0 0 10.03502 -9.640514 9.651074 6.163133 6.078669 -22.55522 -2.174897 -90.5509 23.80478 18.74548 0 0 -21.6567 10.66215 14.82983 1.49195
0.8566533 96.88963 23.58242 -0.2631377 -1.908957 2.385653 3.6915 -32.27903 0.9407093 -0 13.80902 -0 -6.406957 -2.255521 -4.893227 -4.87822 20.84174 -12.52278 -0 13.81454 -0 0.2225866 -20.76522 14.81698 -2.088553 -2.125853 3.473095 3.650218 9.831284 -8.85841 0.4529349 21.02948 7.834672 3.97373 -26.83617 8.837623 5.325838 -17.75206 12.02196 88.99268 36.18639 -23.26191 -0 0 9.473739 -9.685047 9.691392 6.040913 6.134113 -22.73208 -2.272956 -89.96527 23.8664 17.80256 0 0 -22.45021 10.53871 14.61556 1.633947
0.7693103 95.94428 29.39254 -0.2154386 -3.020415 2.746983 3.561411 -30.9596 0.1515573 -0 13.53497 -0 -5.973818 0.2516807 -5.421949 -4.769421 20.63117 -10.32759 -0 19.83735 -0 -1.865034 -19.38276 13.01703 -2.09212 -2.07064 3.358612 3.668189 9.825666 -8.982691 0.4666257 21.01474 7.841945 3.96354 -26.65372 8.812193 5.306464 -17.45503 11.97873 89.35601 36.00056 -23.81566 -0 0 8.986934 -9.806562 9.767053 5.965845 6.175138 -22.90807 -2.386906 -89.39718 23.86714 16.93127 0 0 -23.2147 10.38841 14.37386 1.807939
0.6927258 95.46444 35.83341 -0.120753 -4.266065 3.03449 3.849951 -28.0579 0.1318605 -0 14.19277 -0 -5.531016 1.816899 -5.96933 -4.559897 18.95251 -8.438396 -0 28.49425 -0 -3.84811 -17.07451 11.8043 -2.077484 -2.01608 3.316143 3.641633 9.871198 -9.061156 0.4848875 20.97721 7.812385 3.928275 -26.40248 8.743872 5.253261 -17.26598 11.95346 89.59389 35.70571 -24.15308 -0 0 8.715767 -10.09987 9.910447 6.008761 6.176845 -23.03486 -2.520529 -88.90116 23.78747 16.2614 0 0 -23.83665 10.11698 14.05818 2.123545
0.6112554 95.62115 42.56646 -0.02534321 -5.452047 3.12547 4.628141 -23.51536 1.042925 -0 15.32153 -0 -5.256464 1.719613 -6.392378 -4.139942 15.47109 -7.204076 -0 39.42483 -0 -5.403569 -13.89742 11.54591 -2.043361 -1.952837 3.429676 3.521975 9.980481 -9.012539 0.5150047 20.9132 7.712058 3.848259 -26.02555 8.601316 5.158922 -17.30355 11.95578 89.47931 35.27522 -23.93297 -0 0 8.959111 -10.68528 10.1473 6.290149 6.093745 -22.98622 -2.652829 -88.6498 23.63562 16.11545 0 0 -23.99783 9.568366 13.62223 2.762184
0.4968111 96.42955 49.17478 0.01194021 -6.34936 2.898311 5.685773 -17.6338 2.64597 -0 16.17233 -0 -5.292245 -0.3696773 -6.516246 -3.496941 10.22021 -6.765257 -0 50.7811 -0 -6.289241 -10.27506 12.35121 -1.999606 -1.873882 3.753129 3.282079 10.1343 -8.766953 0.5613832 20.83533 7.526244 3.719137 -25.51655 8.380216 5.036969 -17.65043 11.98708 88.83053 34.74982 -22.88673 -0 0 9.941346 -11.57868 10.45202 6.873778 5.898835 -22.64235 -2.739277 -88.82665 23.46639 16.77741 0 0 -23.38307 8.66564 13.07427 3.814109
